# xmcd
#
# Track frame offsets: 
#        150
#        29947
#        49132
#        71232
#        94952
#        121670
#        145750
#        173252
#        186855
#        208082
#        229282
#        258160
#        283862
#
# Disc length: 4076 seconds
#
# Revision: 3
# Processed by: cddbd v1.5.2PL0 Copyright (c) Steve Scherf et al.
# Submitted via: ExactAudioCopy v1.0b3
#
DISCID=c40fea0d
DTITLE=David Munyon - Seven Leaves In A Blue Bowl Of Water
DYEAR=2004
DGENRE=Blues
TTITLE0=Bahnhof Tanz
TTITLE1=Amer Stocking
TTITLE2=Men with No Friends
TTITLE3=Words of Love
TTITLE4=Unknown Blues
TTITLE5=The O.K.Corral
TTITLE6=Neat Shoes
TTITLE7=Louisiana
TTITLE8=Pork Chop Song
TTITLE9=I Wish I Was in Ireland
TTITLE10=Bastian
TTITLE11=Strawberries an' Wild Honey
TTITLE12=With Any Luck at All
EXTD=
EXTT0=
EXTT1=
EXTT2=
EXTT3=
EXTT4=
EXTT5=
EXTT6=
EXTT7=
EXTT8=
EXTT9=
EXTT10=
EXTT11=
EXTT12=
PLAYORDER=
